<svg xmlns="http://www.w3.org/2000/svg" width="38.933" height="45.562" viewBox="0 0 38.933 45.562">
  <g id="Group_145" data-name="Group 145" transform="translate(-4.25 -2.25)">
    <path id="Path_59" data-name="Path 59" d="M9.381,18.886c-.013.022-1.271,2.268-2.52,4.835-.734,1.511-1.324,2.841-1.751,3.956a9.577,9.577,0,0,0-.86,3.415,6.213,6.213,0,0,0,12.426,0,9.56,9.56,0,0,0-.86-3.415c-.429-1.125-1-2.417-1.751-3.955-1.248-2.568-2.507-4.815-2.52-4.836a1.207,1.207,0,0,0-1.133-.635A1.233,1.233,0,0,0,9.381,18.886Zm1.082,3.3.684,1.286c.194.355.343.626.686,1.332.706,1.455,1.266,2.717,1.663,3.756a11.12,11.12,0,0,1,.694,2.528,3.728,3.728,0,0,1-7.456,0,11.114,11.114,0,0,1,.694-2.527c.4-1.032.971-2.331,1.663-3.758.341-.7.49-.974.681-1.324Z" transform="translate(0 10.508)" fill="#00172a"/>
    <path id="Path_60" data-name="Path 60" d="M15.658,14.126a1.14,1.14,0,0,0-.283-.036,1.193,1.193,0,0,0-.878.414L8.229,20.771a1.246,1.246,0,0,0,0,1.758L25.8,40.1a1.243,1.243,0,0,0,1.758,0L40.445,27.215a1.246,1.246,0,0,0,0-1.758L23.236,8.246V3.516a1.242,1.242,0,0,0-.366-.906,1.208,1.208,0,0,0-.883-.36,1.251,1.251,0,0,0-1.236,1.259V18.518l-.207.118a2.9,2.9,0,1,0,2.9,0l-.207-.118V11.76L37.809,26.335,26.682,37.464,10.865,21.65l5.383-5.383A1.149,1.149,0,0,0,16.63,15.1,1.4,1.4,0,0,0,15.658,14.126Z" transform="translate(2.375)" fill="#00172a"/>
  </g>
</svg>
