<svg xmlns="http://www.w3.org/2000/svg" width="51.492" height="40.832" viewBox="0 0 51.492 40.832">
  <g id="noun_Car_2092407" transform="translate(0 -13.5)">
    <path id="Path_79" data-name="Path 79" d="M108.827,80H104.8a.8.8,0,0,0-.8.8v4.023a.8.8,0,0,0,.8.8h4.023a.8.8,0,0,0,.8-.8V80.8A.8.8,0,0,0,108.827,80Zm-.8,4.023h-2.414V81.609h2.414Z" transform="translate(-62.163 -39.748)"/>
    <path id="Path_80" data-name="Path 80" d="M15.827,80H11.8a.8.8,0,0,0-.8.8v4.023a.8.8,0,0,0,.8.8h4.023a.8.8,0,0,0,.8-.8V80.8A.8.8,0,0,0,15.827,80Zm-.8,4.023H12.609V81.609h2.414Z" transform="translate(-6.575 -39.748)"/>
    <path id="Path_81" data-name="Path 81" d="M55.694,32.171a.8.8,0,0,0,.052-.648,44.017,44.017,0,0,0-4.727-8.6C49.957,21.249,42.97,21,38.894,21s-11.063.249-12.1,1.891a44.81,44.81,0,0,0-4.747,8.633.8.8,0,0,0,.495,1.026A52.72,52.72,0,0,0,38.3,34.678a69.3,69.3,0,0,0,16.9-2.124A.8.8,0,0,0,55.694,32.171Zm-31.829-.9a47.939,47.939,0,0,1,4.244-7.454c.475-.487,4.232-1.207,10.785-1.207s10.311.716,10.785,1.207a48.394,48.394,0,0,1,4.228,7.41C38.685,34.839,26.951,32.131,23.865,31.27Z" transform="translate(-13.148 -4.483)"/>
    <path id="Path_82" data-name="Path 82" d="M49.807,21.345H46.741a1.686,1.686,0,0,0-1.686,1.686v.117a3,3,0,0,0,.4,1.492l-.221.221a59.69,59.69,0,0,0-5.153-9.12C38.812,13.729,29.624,13.5,25.754,13.5s-13.066.2-14.313,2.213a58.537,58.537,0,0,0-4.98,8.681l-.2-.233a3.005,3.005,0,0,0,.177-1.014V23.03a1.686,1.686,0,0,0-1.686-1.686H1.686A1.686,1.686,0,0,0,0,23.03v.117a3.029,3.029,0,0,0,3.025,3.025h.4a3.009,3.009,0,0,0,1.887-.664l.4.475A14.981,14.981,0,0,0,.8,37.838,36.918,36.918,0,0,0,2.414,48.326v3.621A2.386,2.386,0,0,0,4.8,54.332H7.273A2.386,2.386,0,0,0,9.655,51.95V49.3h.43a.8.8,0,0,0,.6-.274l.768-.865H40.019l.768.865a.8.8,0,0,0,.6.274h.447V51.95a2.386,2.386,0,0,0,2.382,2.382H46.7a2.386,2.386,0,0,0,2.382-2.382V48.33a37.4,37.4,0,0,0,1.609-10.488,15.033,15.033,0,0,0-4.582-11.59l.483-.483a3,3,0,0,0,1.492.4h.4a3.029,3.029,0,0,0,3.009-3.025V23.03A1.686,1.686,0,0,0,49.807,21.345Zm-44.979,1.8a1.416,1.416,0,0,1-1.416,1.416h-.4a1.416,1.416,0,0,1-1.4-1.416V23.03a.076.076,0,0,1,.076-.076H4.751a.076.076,0,0,1,.076.076Zm2.217,3.83a.829.829,0,0,0,.274-.378s0-.028,0-.044c.072-.209.153-.4.237-.636a56.882,56.882,0,0,1,5.206-9.3c.515-.611,4.984-1.5,12.986-1.5S38.217,16,38.732,16.63c.04.056,3.983,5.761,5.443,9.961a.829.829,0,0,0,.274.378,9.8,9.8,0,0,1,1.388,1.356C25.617,36.37,9.321,30,5.656,28.324a9.8,9.8,0,0,1,1.388-1.348Zm6.69,5.632a54.264,54.264,0,0,0,11.755,1.283,55.318,55.318,0,0,0,11.449-1.207,3.407,3.407,0,0,0-.161,1.509,3.621,3.621,0,0,0,.615,1.585l-1.513.451C30.9,37.657,26.225,39,18.2,36.873q-2.675-.712-5.045-1.207a3.427,3.427,0,0,0,.7-1.533A3.11,3.11,0,0,0,13.734,32.608ZM4.662,29.64a42.107,42.107,0,0,0,6.923,2.454l.024.036a2.2,2.2,0,0,1,.656,1.714,2.414,2.414,0,0,1-1.034,1.432c-.4-.076-.833-.145-1.231-.209a21.8,21.8,0,0,0-7.394-.233A13.356,13.356,0,0,1,4.662,29.64ZM8.046,51.95a.772.772,0,0,1-.772.772H4.8a.772.772,0,0,1-.772-.772V49.3H8.046Zm39.424,0a.772.772,0,0,1-.772.772H44.219a.772.772,0,0,1-.772-.772V49.3h4.023Zm1.609-14.156a36.315,36.315,0,0,1-1.468,9.9H41.769L41,46.825a.8.8,0,0,0-.6-.27H11.091a.8.8,0,0,0-.6.27l-.768.869H3.894a36.584,36.584,0,0,1-1.48-9.9V36.547c.615-.213,2.559-.628,7.326.113a79.621,79.621,0,0,1,8.046,1.754,31.628,31.628,0,0,0,8.207,1.159,35.359,35.359,0,0,0,10.331-1.81A46.021,46.021,0,0,1,43.656,36.1a28.964,28.964,0,0,1,5.366-.141A14.651,14.651,0,0,1,49.078,37.794ZM46.85,29.652A13.356,13.356,0,0,1,48.8,34.334a30.408,30.408,0,0,0-5.322.169,35.658,35.658,0,0,0-4.369.833A2.325,2.325,0,0,1,38.382,34a2.414,2.414,0,0,1,.64-1.79,58.958,58.958,0,0,0,7.816-2.554Zm3.033-6.5a1.416,1.416,0,0,1-1.416,1.416h-.4a1.416,1.416,0,0,1-1.4-1.416V23.03a.076.076,0,0,1,.076-.076h3.065a.076.076,0,0,1,.076.076Z"/>
    <path id="Path_83" data-name="Path 83" d="M59.3,68.989h2.816a.8.8,0,0,0,0-1.609H59.3a.8.8,0,0,0,0,1.609Z" transform="translate(-34.966 -32.205)"/>
    <path id="Path_84" data-name="Path 84" d="M56.648,88H31.3a.8.8,0,0,0,0,1.609H56.648a.8.8,0,0,0,0-1.609Z" transform="translate(-18.23 -44.53)"/>
    <path id="Path_85" data-name="Path 85" d="M34.8,82.609H57.332a.8.8,0,1,0,0-1.609H34.8a.8.8,0,0,0,0,1.609Z" transform="translate(-20.322 -40.346)"/>
  </g>
</svg>
