<svg xmlns="http://www.w3.org/2000/svg" width="52.511" height="50.348" viewBox="0 0 52.511 50.348">
  <g id="noun_cities_1437935" transform="translate(-7.479 -9.23)">
    <path id="Path_105" data-name="Path 105" d="M26.51,69.07H22.626A.927.927,0,0,0,21.7,70V73.88a.927.927,0,0,0,.926.926H26.51a.927.927,0,0,0,.926-.926V70A.927.927,0,0,0,26.51,69.07Zm-.926,3.884H23.552V70.922h2.031Z" transform="translate(-5.44 -22.891)" fill="#00172a"/>
    <path id="Path_106" data-name="Path 106" d="M40.21,69.07H36.326A.927.927,0,0,0,35.4,70V73.88a.927.927,0,0,0,.926.926H40.21a.927.927,0,0,0,.926-.926V70A.927.927,0,0,0,40.21,69.07Zm-.926,3.884H37.252V70.922h2.031v2.031Z" transform="translate(-10.681 -22.891)" fill="#00172a"/>
    <path id="Path_107" data-name="Path 107" d="M26.51,55.36H22.626a.927.927,0,0,0-.926.926V60.17a.927.927,0,0,0,.926.926H26.51a.927.927,0,0,0,.926-.926V56.286A.926.926,0,0,0,26.51,55.36Zm-.926,3.884H23.552V57.212h2.031Z" transform="translate(-5.44 -17.646)" fill="#00172a"/>
    <path id="Path_108" data-name="Path 108" d="M40.21,55.36H36.326a.927.927,0,0,0-.926.926V60.17a.927.927,0,0,0,.926.926H40.21a.927.927,0,0,0,.926-.926V56.286A.926.926,0,0,0,40.21,55.36Zm-.926,3.884H37.252V57.212h2.031v2.031Z" transform="translate(-10.681 -17.646)" fill="#00172a"/>
    <path id="Path_109" data-name="Path 109" d="M26.51,41.66H22.626a.927.927,0,0,0-.926.926V46.47a.927.927,0,0,0,.926.926H26.51a.927.927,0,0,0,.926-.926V42.586A.926.926,0,0,0,26.51,41.66Zm-.926,3.884H23.552V43.512h2.031Z" transform="translate(-5.44 -12.406)" fill="#00172a"/>
    <path id="Path_110" data-name="Path 110" d="M40.21,41.66H36.326a.927.927,0,0,0-.926.926V46.47a.927.927,0,0,0,.926.926H40.21a.927.927,0,0,0,.926-.926V42.586A.926.926,0,0,0,40.21,41.66Zm-.926,3.884H37.252V43.512h2.031v2.031Z" transform="translate(-10.681 -12.406)" fill="#00172a"/>
    <path id="Path_111" data-name="Path 111" d="M60.16,41.66H56.276a.927.927,0,0,0-.926.926V46.47a.927.927,0,0,0,.926.926H60.16a.927.927,0,0,0,.926-.926V42.586A.926.926,0,0,0,60.16,41.66Zm-.926,3.884H57.2V43.512h2.031Z" transform="translate(-18.312 -12.406)" fill="#00172a"/>
    <path id="Path_112" data-name="Path 112" d="M73.86,41.66H69.976a.927.927,0,0,0-.926.926V46.47a.927.927,0,0,0,.926.926H73.86a.927.927,0,0,0,.926-.926V42.586A.926.926,0,0,0,73.86,41.66Zm-.926,3.884H70.9V43.512h2.031Z" transform="translate(-23.553 -12.406)" fill="#00172a"/>
    <path id="Path_113" data-name="Path 113" d="M73.86,55.36H69.976a.927.927,0,0,0-.926.926V60.17a.927.927,0,0,0,.926.926H73.86a.927.927,0,0,0,.926-.926V56.286A.926.926,0,0,0,73.86,55.36Zm-.926,3.884H70.9V57.212h2.031Z" transform="translate(-23.553 -17.646)" fill="#00172a"/>
    <path id="Path_114" data-name="Path 114" d="M60.16,55.36H56.276a.927.927,0,0,0-.926.926V60.17a.927.927,0,0,0,.926.926H60.16a.927.927,0,0,0,.926-.926V56.286A.926.926,0,0,0,60.16,55.36Zm-.926,3.884H57.2V57.212h2.031Z" transform="translate(-18.312 -17.646)" fill="#00172a"/>
    <path id="Path_115" data-name="Path 115" d="M73.86,69.07H69.976A.927.927,0,0,0,69.05,70V73.88a.927.927,0,0,0,.926.926H73.86a.927.927,0,0,0,.926-.926V70A.927.927,0,0,0,73.86,69.07Zm-.926,3.884H70.9V70.922h2.031Z" transform="translate(-23.553 -22.891)" fill="#00172a"/>
    <path id="Path_116" data-name="Path 116" d="M60.16,69.07H56.276A.927.927,0,0,0,55.35,70V73.88a.927.927,0,0,0,.926.926H60.16a.927.927,0,0,0,.926-.926V70A.927.927,0,0,0,60.16,69.07Zm-.926,3.884H57.2V70.922h2.031Z" transform="translate(-18.312 -22.891)" fill="#00172a"/>
    <path id="Path_117" data-name="Path 117" d="M60.16,27.95H56.276a.927.927,0,0,0-.926.926V32.76a.927.927,0,0,0,.926.926H60.16a.927.927,0,0,0,.926-.926V28.876A.927.927,0,0,0,60.16,27.95Zm-.926,3.884H57.2V29.8h2.031Z" transform="translate(-18.312 -7.161)" fill="#00172a"/>
    <path id="Path_118" data-name="Path 118" d="M73.86,27.95H69.976a.927.927,0,0,0-.926.926V32.76a.927.927,0,0,0,.926.926H73.86a.927.927,0,0,0,.926-.926V28.876A.927.927,0,0,0,73.86,27.95Zm-.926,3.884H70.9V29.8h2.031Z" transform="translate(-23.553 -7.161)" fill="#00172a"/>
    <path id="Path_119" data-name="Path 119" d="M60.16,14.25H56.276a.927.927,0,0,0-.926.926V19.06a.927.927,0,0,0,.926.926H60.16a.927.927,0,0,0,.926-.926V15.176A.926.926,0,0,0,60.16,14.25Zm-.926,3.884H57.2V16.1h2.031Z" transform="translate(-18.312 -1.92)" fill="#00172a"/>
    <path id="Path_120" data-name="Path 120" d="M73.86,14.25H69.976a.927.927,0,0,0-.926.926V19.06a.927.927,0,0,0,.926.926H73.86a.927.927,0,0,0,.926-.926V15.176A.926.926,0,0,0,73.86,14.25Zm-.926,3.884H70.9V16.1h2.031Z" transform="translate(-23.553 -1.92)" fill="#00172a"/>
    <path id="Path_121" data-name="Path 121" d="M8.392,59.578H59.05a.926.926,0,0,0,.026-1.852H55.438V13.9A4.642,4.642,0,0,0,50.862,9.23H37.408A4.642,4.642,0,0,0,32.833,13.9v9.614H17.445a5.505,5.505,0,0,0-5.415,5.551V57.726H8.418a.926.926,0,1,0-.026,1.852ZM34.685,13.9a2.776,2.776,0,0,1,2.723-2.816H50.863A2.776,2.776,0,0,1,53.586,13.9V57.726h-18.9Zm-20.8,15.165a3.637,3.637,0,0,1,3.563-3.7H32.833V57.726H13.883Z" transform="translate(0)" fill="#00172a"/>
  </g>
</svg>
