<svg xmlns="http://www.w3.org/2000/svg" width="56" height="41.066" viewBox="0 0 56 41.066">
  <g id="Group_147" data-name="Group 147" transform="translate(-1.698 -13.028)">
    <path id="Path_71" data-name="Path 71" d="M49.709,50.844h4.414a1.125,1.125,0,0,0,1.044-.719c5.632-14.694.143-23.849-.094-24.231a1.123,1.123,0,0,0-.949-.528H49.709a1.119,1.119,0,0,0-1.118,1.118v3.537H45.484V25.258a1.119,1.119,0,0,0-1.118-1.118H37.648V20.75a1.119,1.119,0,0,0-1.118-1.118H29.607V15.264h5.755a1.118,1.118,0,1,0,0-2.236H15.842a1.118,1.118,0,1,0,0,2.236h5.973v4.369H15.842a1.119,1.119,0,0,0-1.118,1.118V24.14H9.186a1.119,1.119,0,0,0-1.118,1.118v9.407H3.934v-9.4a1.118,1.118,0,0,0-2.236,0V46.586a1.118,1.118,0,0,0,2.236,0V36.9H8.067v9.684A1.119,1.119,0,0,0,9.185,47.7H22.764l4.9,5.98a1.112,1.112,0,0,0,.865.41H44.366a1.119,1.119,0,0,0,1.118-1.118V45.714h3.107v4.012A1.119,1.119,0,0,0,49.709,50.844ZM24.052,15.264H27.37v4.369H24.052ZM44.366,43.478A1.119,1.119,0,0,0,43.248,44.6v7.261H29.057l-4.9-5.981a1.117,1.117,0,0,0-.866-.409H10.3V26.376h5.539a1.119,1.119,0,0,0,1.118-1.118V21.868H35.413v3.389a1.119,1.119,0,0,0,1.118,1.118h6.717v4.763a1.119,1.119,0,0,0,1.118,1.118h4.226V37.6a1.118,1.118,0,1,0,2.236,0v-10h2.629l.086.183c.964,2.047,3.8,9.582-.12,20.612l-.075.211h-2.52V44.6a1.119,1.119,0,0,0-1.118-1.118Z" fill="#00172a"/>
    <path id="Path_72" data-name="Path 72" d="M43.658,41.1a1.118,1.118,0,0,0-.977-.576H37.333l3.6-6.276a1.118,1.118,0,1,0-1.94-1.112L34.434,41.08a1.119,1.119,0,0,0,.971,1.675h5.259l-3.681,5.9a1.114,1.114,0,0,0,.355,1.538,1.143,1.143,0,0,0,1.541-.355l4.749-7.607A1.117,1.117,0,0,0,43.658,41.1Z" transform="translate(-11.83 -7.093)" fill="#00172a"/>
  </g>
</svg>
