<svg xmlns="http://www.w3.org/2000/svg" width="40.84" height="51.054" viewBox="0 0 40.84 51.054">
  <g id="noun_Engine_789611" transform="translate(-1.059 -0.266)">
    <g id="Group_150" data-name="Group 150" transform="translate(1.059 0.266)">
      <path id="Path_123" data-name="Path 123" d="M14.972,289.2a.851.851,0,0,0-.754.854v2.563H7.41a.852.852,0,0,0-.6.252l-5.1,5.1a.851.851,0,0,0-.251.6V332.6a.854.854,0,1,0,1.709,0v-33.68l4.6-4.611h7.311a.851.851,0,0,0,.854-.854v-3.4a.851.851,0,0,0-.955-.854Z" transform="translate(1.094 -286.661)" fill-rule="evenodd"/>
      <path id="Path_124" data-name="Path 124" d="M5.516,289.2a.851.851,0,0,0-.754.854v3.4a.851.851,0,0,0,.854.854h7.311l4.6,4.61V332.6a.854.854,0,1,0,1.709,0V298.57a.851.851,0,0,0-.251-.6l-5.1-5.1a.851.851,0,0,0-.6-.251H6.47v-2.563a.851.851,0,0,0-.955-.854Z" transform="translate(19.056 -286.661)" fill-rule="evenodd"/>
      <path id="Path_125" data-name="Path 125" d="M1.588,294.223v1.7H35.62v-1.7Z" transform="translate(1.816 -259.336)" fill-rule="evenodd"/>
      <path id="Path_126" data-name="Path 126" d="M1.588,294.752v1.7H35.62v-1.7Z" transform="translate(1.816 -256.461)" fill-rule="evenodd"/>
      <path id="Path_127" data-name="Path 127" d="M1.588,295.279v1.709H35.62v-1.709Z" transform="translate(1.816 -253.597)" fill-rule="evenodd"/>
      <path id="Path_128" data-name="Path 128" d="M3.705,295.412v8.517h6.8v-8.517h-1.7v6.809H5.4v-6.809Z" transform="translate(13.317 -252.875)" fill-rule="evenodd"/>
      <path id="Path_129" data-name="Path 129" d="M4.1,288.8v17.864H5.8V288.8Z" transform="translate(15.47 -288.799)" fill-rule="evenodd"/>
      <path id="Path_130" data-name="Path 130" d="M3.705,291.443v1.709h6.8v-1.709Z" transform="translate(13.317 -274.434)" fill-rule="evenodd"/>
      <path id="Path_131" data-name="Path 131" d="M10.6,289.326a.85.85,0,0,0-.59.252l-3.819,3.831L7.4,294.615l3.216-3.229,1.357,1.344-3.229,3.229,1.206,1.206,3.819-3.832a.851.851,0,0,0,0-1.206l-2.55-2.55A.851.851,0,0,0,10.6,289.326Z" transform="translate(26.822 -285.934)" fill-rule="evenodd"/>
      <path id="Path_132" data-name="Path 132" d="M4.45,289.326a.85.85,0,0,0-.59.252l-2.55,2.55a.851.851,0,0,0,0,1.206l3.819,3.832,1.206-1.206-3.229-3.229,1.357-1.344,3.216,3.229,1.206-1.206-3.819-3.832a.851.851,0,0,0-.616-.251Z" transform="translate(-1.059 -285.934)" fill-rule="evenodd"/>
      <path id="Path_133" data-name="Path 133" d="M3.439,289.062v2.55H5.148v-2.55Z" transform="translate(11.874 -287.366)" fill-rule="evenodd"/>
      <path id="Path_134" data-name="Path 134" d="M4.762,289.062v2.55H6.47v-2.55Z" transform="translate(19.056 -287.366)" fill-rule="evenodd"/>
    </g>
  </g>
</svg>
