<svg xmlns="http://www.w3.org/2000/svg" width="88" height="92.938" viewBox="0 0 88 92.938">
  <g id="graphic" transform="translate(-13.601)">
    <g id="Group_27" data-name="Group 27" transform="translate(13.601 26.62)">
      <g id="Group_26" data-name="Group 26" transform="translate(0)">
        <path id="Path_20" data-name="Path 20" d="M99.786,209.341H95.8V151.534a4.885,4.885,0,0,0-4.88-4.88h-8.9a4.885,4.885,0,0,0-4.88,4.88v57.807H67.037V177.725a4.885,4.885,0,0,0-4.88-4.88h-8.9a4.885,4.885,0,0,0-4.88,4.88v31.616H38.27V192.967a4.885,4.885,0,0,0-4.88-4.88h-8.9a4.885,4.885,0,0,0-4.88,4.88v16.374h-4.2a1.815,1.815,0,1,0,0,3.63h84.37a1.815,1.815,0,1,0,0-3.63Zm-65.146,0h-11.4V192.967a1.251,1.251,0,0,1,1.249-1.249h8.9a1.251,1.251,0,0,1,1.249,1.249v16.374Zm28.767,0H52.01V177.725a1.251,1.251,0,0,1,1.249-1.249h8.9a1.251,1.251,0,0,1,1.249,1.249Zm28.767,0h-11.4V151.534a1.251,1.251,0,0,1,1.249-1.249h8.9a1.251,1.251,0,0,1,1.249,1.249Z" transform="translate(-13.601 -146.654)" fill="#3775df"/>
      </g>
    </g>
    <g id="Group_29" data-name="Group 29" transform="translate(29.165)">
      <g id="Group_28" data-name="Group 28" transform="translate(0)">
        <path id="Path_21" data-name="Path 21" d="M165.981,1.909a1.809,1.809,0,0,0-1.9-1.9c-.029,0-.058,0-.088,0H153.007a1.815,1.815,0,1,0,0,3.63h6.781L141.843,21.575l-6.767-6.767a1.815,1.815,0,0,0-2.567,0L99.878,47.44a1.815,1.815,0,0,0,2.567,2.567l31.348-31.348,6.767,6.767a1.815,1.815,0,0,0,2.567,0L162.355,6.2v6.137a1.815,1.815,0,0,0,3.63,0V2C165.985,1.967,165.982,1.938,165.981,1.909Z" transform="translate(-99.346)" fill="#3775df"/>
      </g>
    </g>
    <g id="Group_31" data-name="Group 31" transform="translate(23.047 53.241)">
      <g id="Group_30" data-name="Group 30" transform="translate(0)">
        <circle id="Ellipse_2" data-name="Ellipse 2" cx="1.815" cy="1.815" r="1.815" fill="#3775df"/>
      </g>
    </g>
  </g>
</svg>
