<svg xmlns="http://www.w3.org/2000/svg" width="103" height="92.961" viewBox="0 0 103 92.961">
  <g id="heart" transform="translate(0 -0.5)">
    <path id="Path_27" data-name="Path 27" d="M42.012,262.6a2.012,2.012,0,1,0,2.012,2.012A2.013,2.013,0,0,0,42.012,262.6Zm0,0" transform="translate(-31.953 -209.371)" fill="#3775df"/>
    <path id="Path_28" data-name="Path 28" d="M92.462,237.62,73.5,244.14a8.028,8.028,0,0,0-7.916-9.473H52.554a2.013,2.013,0,0,1-.988-.259l-10.628-5.978a14.094,14.094,0,0,0-6.906-1.811H19.771a6.044,6.044,0,0,0-5.689-4.023H2.012A2.012,2.012,0,0,0,0,224.609v36.21a2.012,2.012,0,0,0,2.012,2.012h12.07a6.047,6.047,0,0,0,5.632-3.872,18.366,18.366,0,0,1,6.568,1.95L36.8,267.222a25.645,25.645,0,0,0,23.808,1.359l37.548-16.533a7.755,7.755,0,0,0-5.7-14.427ZM16.094,256.806a2.014,2.014,0,0,1-2.012,2H4.023V226.621H14.082a2.014,2.014,0,0,1,2.012,2.012Zm80.536-8.479-.064.026L58.955,264.913a21.621,21.621,0,0,1-20.082-1.141l-10.521-6.313a22.182,22.182,0,0,0-8.235-2.5v-24.31H34.032a10.064,10.064,0,0,1,4.933,1.293l10.628,5.978a6.044,6.044,0,0,0,2.961.776H65.582a4.023,4.023,0,1,1,0,8.047H45.131a2.011,2.011,0,1,0,0,4.023h20.45a8.031,8.031,0,0,0,3.771-.942l24.461-8.408a3.734,3.734,0,1,1,2.816,6.916Zm0,0" transform="translate(0 -177.418)" fill="#3775df"/>
    <path id="Path_29" data-name="Path 29" d="M186.362,49.3a2.014,2.014,0,0,0,2.636,0c16.414-14.225,26.567-21.424,26.567-32.611C215.564,7.834,209.3.5,200.5.5c-5.781,0-10.207,3.332-13.058,8.332C184.594,3.843,180.172.5,174.383.5c-6.738,0-12.372,4.367-14.352,11.124a2.012,2.012,0,1,0,3.861,1.132,10.916,10.916,0,0,1,10.492-8.232c5.739,0,9.765,5.1,11.117,9.841a2.012,2.012,0,0,0,3.877,0c.028-.1,2.822-9.841,11.12-9.841,6.3,0,11.044,5.227,11.044,12.161,0,8.949-8.748,15.4-23.863,28.433C178.469,37.209,171.154,31.642,167,26.2a2.012,2.012,0,1,0-3.2,2.442C168.485,34.776,176.4,40.657,186.362,49.3Zm0,0" transform="translate(-127.771)" fill="#3775df"/>
    <path id="Path_30" data-name="Path 30" d="M161.012,88.6a2.012,2.012,0,1,0,2.012,2.012A2.013,2.013,0,0,0,161.012,88.6Zm0,0" transform="translate(-127.014 -70.375)" fill="#3775df"/>
  </g>
</svg>
