<svg xmlns="http://www.w3.org/2000/svg" width="42" height="42" viewBox="0 0 42 42">
  <g id="noun_Road_3038319" transform="translate(-3 -3)">
    <path id="Path_94" data-name="Path 94" d="M3.8,44.98A1.5,1.5,0,0,0,4,45a1,1,0,0,0,.98-.8l8-40a1,1,0,0,0-1.96-.4l-8,40A1,1,0,0,0,3.8,44.98Z"/>
    <path id="Path_95" data-name="Path 95" d="M16.2,3.02a1,1,0,0,0-1.18.78l-8,40a1,1,0,0,0,.78,1.18A1.5,1.5,0,0,0,8,45a1,1,0,0,0,.98-.8l8-40A1,1,0,0,0,16.2,3.02Z"/>
    <path id="Path_96" data-name="Path 96" d="M44,45a1.5,1.5,0,0,0,.2-.02,1,1,0,0,0,.78-1.18l-8-40a1,1,0,1,0-1.96.4l8,40A1,1,0,0,0,44,45Z"/>
    <path id="Path_97" data-name="Path 97" d="M40,45a1.5,1.5,0,0,0,.2-.02,1,1,0,0,0,.78-1.18l-8-40a1,1,0,0,0-1.96.4l8,40A1,1,0,0,0,40,45Z"/>
    <path id="Path_98" data-name="Path 98" d="M24,11a1,1,0,0,0,1-1V6a1,1,0,0,0-2,0v4A1,1,0,0,0,24,11Z"/>
    <path id="Path_99" data-name="Path 99" d="M23,18a1,1,0,0,0,2,0V14a1,1,0,0,0-2,0Z"/>
    <path id="Path_100" data-name="Path 100" d="M23,26a1,1,0,0,0,2,0V22a1,1,0,0,0-2,0Z"/>
    <path id="Path_101" data-name="Path 101" d="M23,34a1,1,0,0,0,2,0V30a1,1,0,0,0-2,0Z"/>
    <path id="Path_102" data-name="Path 102" d="M23,42a1,1,0,0,0,2,0V38a1,1,0,0,0-2,0Z"/>
  </g>
</svg>
