<svg xmlns="http://www.w3.org/2000/svg" width="49.078" height="49.078" viewBox="0 0 49.078 49.078">
  <g id="noun_turbo_2638530" transform="translate(-1 -1)">
    <g id="Group_151" data-name="Group 151" transform="translate(1 1)">
      <path id="Path_135" data-name="Path 135" d="M19.551,23.551A8.7,8.7,0,1,0,25.707,21,8.651,8.651,0,0,0,19.551,23.551ZM32.785,30.5a7.056,7.056,0,0,1-1.513,3.652l-3.427-3.426a2.267,2.267,0,0,0,.093-.226ZM18.63,28.916a7.056,7.056,0,0,1,1.513-3.652l3.426,3.426a2.266,2.266,0,0,0-.093.226Zm6.513,1.341a.764.764,0,0,1-.227-.549.774.774,0,0,1,.242-.564.758.758,0,0,1,.549-.228.774.774,0,0,1,.564.242.764.764,0,0,1,.227.549.772.772,0,0,1-.243.564A.785.785,0,0,1,25.143,30.257Zm-.227-2.763c-.074.025-.146.053-.218.085l-3.435-3.435a7.05,7.05,0,0,1,3.652-1.514Zm-.226,4.35a2.267,2.267,0,0,0,.226.093v4.847a7.056,7.056,0,0,1-3.652-1.513Zm1.81.094a2.281,2.281,0,0,0,.227-.093l3.425,3.425A7.049,7.049,0,0,1,26.5,36.784Zm.216-4.358c-.071-.032-.142-.06-.216-.085V22.63a7.05,7.05,0,0,1,3.652,1.514ZM18.63,30.5h4.845a2.281,2.281,0,0,0,.093.227l-3.425,3.425A7.056,7.056,0,0,1,18.63,30.5Zm14.155-1.583H27.939a2.361,2.361,0,0,0-.093-.227l3.425-3.425A7.05,7.05,0,0,1,32.785,28.916Z" transform="translate(-4.335 -5.169)" fill="#00172a"/>
      <path id="Path_136" data-name="Path 136" d="M48.494,1H46.911a1.585,1.585,0,0,0-1.583,1.583v.078l-6.449.662A1.593,1.593,0,0,0,37.412,4.9v.055H22.246A21.776,21.776,0,0,0,12.105,7.484L9.9,6.008a2.372,2.372,0,0,0-3,.3L3.136,10.07a2.4,2.4,0,0,0-.292,3l1.235,1.845A19.932,19.932,0,0,0,1,25.539,21.292,21.292,0,0,0,3.95,36.356L2.841,38.012a2.372,2.372,0,0,0,.3,3L6.9,44.776a2.37,2.37,0,0,0,3,.293l1.661-1.107a20.809,20.809,0,0,0,5.43,2.246l.393,1.961a2.384,2.384,0,0,0,2.327,1.909h5.32a2.385,2.385,0,0,0,2.327-1.91l.393-1.962a20.812,20.812,0,0,0,5.406-2.264l1.687,1.13a2.37,2.37,0,0,0,3-.3l3.764-3.764a2.372,2.372,0,0,0,.293-3l-1.129-1.685a21.152,21.152,0,0,0,1.609-18.288l2.945.3v.077A1.585,1.585,0,0,0,46.911,20h1.583a1.585,1.585,0,0,0,1.583-1.583V2.583A1.585,1.585,0,0,0,48.494,1ZM4.259,11.185,8.015,7.429a.8.8,0,0,1,1.007-.1l1.554,1.04A21.153,21.153,0,0,0,5.038,13.5L4.161,12.19A.8.8,0,0,1,4.259,11.185ZM9.026,43.75a.8.8,0,0,1-1.006-.1L4.264,39.9a.8.8,0,0,1-.1-1.008l.716-1.073a21.477,21.477,0,0,0,5.219,5.22Zm16.006,4.745H19.713a.8.8,0,0,1-.775-.64l-.254-1.266a21.3,21.3,0,0,0,3.7.322q.666,0,1.334-.041a20.66,20.66,0,0,0,2.346-.3l-.256,1.281A.8.8,0,0,1,25.032,48.494Zm15.454-8.6L36.73,43.648a.8.8,0,0,1-1.006.1l-1.106-.739a21.8,21.8,0,0,0,5.226-5.232l.739,1.106A.8.8,0,0,1,40.486,39.892ZM42.154,26.11a19.555,19.555,0,0,1-2.983,9.823,20.149,20.149,0,0,1-6.4,6.406,19.5,19.5,0,0,1-9.149,2.951,19.793,19.793,0,0,1-5.775-.488,19.293,19.293,0,0,1-5.9-2.443,19.78,19.78,0,0,1-9.36-16.82,18.425,18.425,0,0,1,3.1-10.2A19.541,19.541,0,0,1,12.3,9.169a20.208,20.208,0,0,1,9.948-2.628h12V9.707h1.583V6.541h1.583v7.916H35.829V11.29H34.246v3.166H26.613a11.66,11.66,0,0,0-4.24-.792,11.877,11.877,0,1,0,7.122,2.375h7.918V16.1a1.589,1.589,0,0,0,1.445,1.579l1.741.178A19.486,19.486,0,0,1,42.154,26.11Zm-9.491-.572a10.29,10.29,0,1,1-10.29-10.29,10.086,10.086,0,0,1,3.815.735A10.233,10.233,0,0,1,32.663,25.539ZM39,16.1V5.749L39.02,4.9l6.308-.647v12.5Zm9.5,2.319H46.911V2.583h1.583Z" transform="translate(-1 -1)" fill="#00172a"/>
      <path id="Path_137" data-name="Path 137" d="M45,31.375A2.375,2.375,0,1,0,47.375,29,2.378,2.378,0,0,0,45,31.375Zm3.166,0a.792.792,0,1,1-.792-.792A.792.792,0,0,1,48.166,31.375Z" transform="translate(-10.171 -6.836)" fill="#00172a"/>
      <path id="Path_138" data-name="Path 138" d="M9.815,20.324,8.5,19.446a16.61,16.61,0,0,0-.874,1.48l1.4.736A14.725,14.725,0,0,1,9.815,20.324Z" transform="translate(-2.381 -4.845)" fill="#00172a"/>
      <path id="Path_139" data-name="Path 139" d="M6.583,30.128A16.522,16.522,0,0,1,7.9,23.638L6.44,23.02A18.216,18.216,0,0,0,23.206,48.335V46.751A16.642,16.642,0,0,1,6.583,30.128Z" transform="translate(-1.834 -5.59)" fill="#00172a"/>
    </g>
  </g>
</svg>
