<svg xmlns="http://www.w3.org/2000/svg" width="38.14" height="38.209" viewBox="0 0 38.14 38.209">
  <path id="Icon_feather-phone-call" data-name="Icon feather-phone-call"
    d="M25.487,8.4A8.625,8.625,0,0,1,32.3,15.214M25.487,1.5A15.526,15.526,0,0,1,39.2,15.2M37.476,28.963v5.175a3.45,3.45,0,0,1-3.761,3.45,34.139,34.139,0,0,1-14.887-5.3,33.639,33.639,0,0,1-10.35-10.35,34.139,34.139,0,0,1-5.3-14.956A3.45,3.45,0,0,1,6.615,3.225H11.79a3.45,3.45,0,0,1,3.45,2.967,22.15,22.15,0,0,0,1.208,4.847,3.45,3.45,0,0,1-.776,3.64L13.48,16.87a27.6,27.6,0,0,0,10.35,10.35l2.191-2.191a3.45,3.45,0,0,1,3.64-.776,22.15,22.15,0,0,0,4.847,1.208A3.45,3.45,0,0,1,37.476,28.963Z"
    transform="translate(-2.166 -0.396)" fill="none" stroke="#3775df" strokeLinecap="round" strokeLinejoin="round"
    strokeWidth="2" />
</svg>