<svg xmlns="http://www.w3.org/2000/svg" width="58.239" height="27.664" viewBox="0 0 58.239 27.664">
  <g id="noun_Speedometer_1068198" transform="translate(0 -12.6)">
    <g id="Group_149" data-name="Group 149" transform="translate(0 12.6)">
      <path id="Path_86" data-name="Path 86" d="M58.239,38.929A29.055,29.055,0,0,0,29.12,12.6,29.141,29.141,0,0,0,0,38.929a1.2,1.2,0,0,0,1.213,1.335H57.026A1.2,1.2,0,0,0,58.239,38.929ZM22.2,37.837a8.239,8.239,0,0,1,13.832,0Zm16.622,0a10.841,10.841,0,0,0-9.707-6.188,10.64,10.64,0,0,0-5.1,1.335l-4-4a1.2,1.2,0,0,0-1.7,1.7l3.761,3.761a11.357,11.357,0,0,0-2.548,3.4H2.548a26.882,26.882,0,0,1,53.143,0Z" transform="translate(0 -12.6)"/>
      <path id="Path_87" data-name="Path 87" d="M24.213,16.3A1.146,1.146,0,0,0,23,17.513v2.305a1.213,1.213,0,1,0,2.427,0V17.513A1.216,1.216,0,0,0,24.213,16.3Z" transform="translate(4.906 -11.811)"/>
      <path id="Path_88" data-name="Path 88" d="M11.463,22.264a1.2,1.2,0,0,0-1.7,1.7l1.7,1.7a1.253,1.253,0,0,0,1.7,0,1.173,1.173,0,0,0,0-1.7Z" transform="translate(2.005 -10.616)"/>
      <path id="Path_89" data-name="Path 89" d="M37.263,22.256l-1.7,1.7a1.173,1.173,0,0,0,0,1.7,1.142,1.142,0,0,0,1.7,0l1.7-1.7a1.173,1.173,0,0,0,0-1.7A1.292,1.292,0,0,0,37.263,22.256Z" transform="translate(7.509 -10.608)"/>
      <path id="Path_90" data-name="Path 90" d="M17.722,18.623a1.348,1.348,0,0,0-1.7-.607,1.2,1.2,0,0,0-.607,1.577l.971,2.184a1.158,1.158,0,0,0,1.577.607,1.2,1.2,0,0,0,.607-1.577Z" transform="translate(3.269 -11.464)"/>
      <path id="Path_91" data-name="Path 91" d="M38.914,30.564a1.158,1.158,0,0,0,1.577.607l2.184-.971a1.195,1.195,0,1,0-.971-2.184l-2.184.971A1.326,1.326,0,0,0,38.914,30.564Z" transform="translate(8.285 -9.331)"/>
      <path id="Path_92" data-name="Path 92" d="M9.278,28.887l-2.184-.971A1.195,1.195,0,1,0,6.123,30.1l2.184.971a1.195,1.195,0,1,0,.971-2.184Z" transform="translate(1.157 -9.353)"/>
      <path id="Path_93" data-name="Path 93" d="M32.564,18.016a1.2,1.2,0,0,0-1.577.607l-.971,2.184a1.2,1.2,0,0,0,.607,1.577,1.158,1.158,0,0,0,1.577-.607l.971-2.184A1.113,1.113,0,0,0,32.564,18.016Z" transform="translate(6.383 -11.464)"/>
    </g>
  </g>
</svg>
