<svg xmlns="http://www.w3.org/2000/svg" width="50.213" height="46.07" viewBox="0 0 50.213 46.07">
  <g id="noun_Discount_191910" transform="translate(241.525 -363.5)">
    <path id="Path_122" data-name="Path 122" d="M-191.312,386.535a23.036,23.036,0,0,1-23.035,23.035,23.036,23.036,0,0,1-23.035-23.035,1.3,1.3,0,0,1,.138-.55l-2.269,2.269a1.269,1.269,0,0,1-.825.344,1.269,1.269,0,0,1-.825-.344,1.123,1.123,0,0,1,0-1.65l4.194-4.194a.948.948,0,0,1,.275-.206,1.163,1.163,0,0,1,.963-.069,1.724,1.724,0,0,1,.481.275l4.194,4.194a1.123,1.123,0,0,1,0,1.65,1.269,1.269,0,0,1-.825.344,1.269,1.269,0,0,1-.825-.344l-2.269-2.269a1.3,1.3,0,0,1,.138.55,20.718,20.718,0,0,0,20.7,20.7,20.718,20.718,0,0,0,20.7-20.7,20.718,20.718,0,0,0-20.7-20.7,20.323,20.323,0,0,0-14.784,6.257,1.123,1.123,0,0,1-1.65,0,1.123,1.123,0,0,1,0-1.65,22.986,22.986,0,0,1,16.5-6.945A22.979,22.979,0,0,1-191.312,386.535Zm-16.365-8.389-15.334,15.334a1.123,1.123,0,0,0,0,1.65,1.269,1.269,0,0,0,.825.344,1.269,1.269,0,0,0,.825-.344l15.334-15.334a1.123,1.123,0,0,0,0-1.65A1.123,1.123,0,0,0-207.678,378.146Zm-9.283.206a4.441,4.441,0,0,1,0,6.257,4.326,4.326,0,0,1-3.094,1.306,4.214,4.214,0,0,1-3.094-1.306,4.441,4.441,0,0,1,0-6.257A4.358,4.358,0,0,1-216.96,378.352Zm-1.719,1.65a1.979,1.979,0,0,0-1.444-.619,1.979,1.979,0,0,0-1.444.619,1.994,1.994,0,0,0,0,2.888,1.994,1.994,0,0,0,2.888,0A1.994,1.994,0,0,0-218.679,380Zm10.108,7.22a4.374,4.374,0,0,1,3.094,1.306,4.441,4.441,0,0,1,0,6.257,4.374,4.374,0,0,1-3.094,1.306,4.374,4.374,0,0,1-3.094-1.306,4.441,4.441,0,0,1,0-6.257A4.108,4.108,0,0,1-208.571,387.222Zm1.444,2.957a1.979,1.979,0,0,0-1.444-.619,1.979,1.979,0,0,0-1.444.619,1.994,1.994,0,0,0,0,2.888,1.979,1.979,0,0,0,1.444.619,1.979,1.979,0,0,0,1.444-.619A1.994,1.994,0,0,0-207.127,390.179Z"/>
  </g>
</svg>
