<svg xmlns="http://www.w3.org/2000/svg" width="139.672" height="55.874" viewBox="0 0 139.672 55.874">
  <g id="surface1" transform="translate(0 -0.492)">
    <path id="Path_31" data-name="Path 31" d="M240,86.891h9.311v4.656H240Zm0,0" transform="translate(-181.803 -65.448)" fill="#3775df"/>
    <path id="Path_32" data-name="Path 32" d="M137.674,14.482l-15.813-2.258A79.785,79.785,0,0,0,112.9,7.476,78.392,78.392,0,0,0,80.469.492H77.722a79.128,79.128,0,0,0-37.783,9.635l-7.98,4.353A55,55,0,0,0,5.34,21.7,10.627,10.627,0,0,0,0,30.9V44.721a2.328,2.328,0,0,0,2.328,2.328h7.816a13.916,13.916,0,0,0,26.265,0H98.6a13.916,13.916,0,0,0,26.265,0h.835a2.337,2.337,0,0,0,.866-.166l7.54-3.025a8.8,8.8,0,0,0,5.562-8.215V16.787A2.329,2.329,0,0,0,137.674,14.482ZM32.4,44.256a9.312,9.312,0,1,1,.188-1.862A9.311,9.311,0,0,1,32.4,44.256Zm42.09-1.862H37.245a13.967,13.967,0,1,0-27.934,0H4.656V30.9a5.955,5.955,0,0,1,3-5.16A50.329,50.329,0,0,1,32.59,19.115h41.9Zm0-27.934H41.72l.449-.245A74.433,74.433,0,0,1,74.491,5.25Zm4.656-9.312h1.318a73.676,73.676,0,0,1,27.39,5.248l-4.064,4.064H79.147ZM120.86,44.256a9.312,9.312,0,1,1,.188-1.862A9.312,9.312,0,0,1,120.86,44.256Zm14.156-22.814h-6.984V26.1h6.984v9.544a4.166,4.166,0,0,1-2.635,3.889L125.7,42.214c0-.214-.027-.426-.042-.64s-.019-.465-.042-.7-.07-.466-.107-.7-.065-.466-.112-.677-.115-.447-.175-.669-.107-.444-.177-.661-.153-.423-.232-.636-.152-.43-.233-.64-.191-.4-.289-.6-.193-.415-.3-.615-.233-.37-.338-.556-.232-.4-.365-.589-.257-.342-.385-.514-.273-.375-.422-.554-.288-.319-.433-.466-.305-.344-.465-.507-.319-.292-.479-.436-.333-.314-.511-.466-.356-.267-.532-.4-.354-.275-.54-.4-.4-.232-.6-.363-.364-.233-.552-.332-.423-.206-.637-.308-.382-.193-.58-.277-.466-.172-.7-.256-.385-.15-.583-.212c-.265-.081-.537-.14-.808-.207-.177-.042-.347-.1-.526-.135-.286-.059-.58-.091-.87-.134-.172-.023-.337-.061-.51-.077a14.19,14.19,0,0,0-1.42-.072A13.981,13.981,0,0,0,97.778,42.391H79.148V19.114h25.606a2.324,2.324,0,0,0,1.645-.682l6.037-6.037a74.648,74.648,0,0,1,7.38,4.037,2.335,2.335,0,0,0,.9.331l14.3,2.041Zm0,0" transform="translate(0 0)" fill="#3775df"/>
  </g>
</svg>
