<svg xmlns="http://www.w3.org/2000/svg" width="101.286" height="99.938" viewBox="0 0 101.286 99.938">
  <g id="partnership-handshake" transform="translate(0.001 -0.5)">
    <path id="Path_22" data-name="Path 22" d="M100.873,122.421,83.92,100.4a1.986,1.986,0,0,0-2.64-.464L70.335,106.9H56.06a1.968,1.968,0,0,0-.546.091l-11.068,3.186-11.485-3.141L21.8,99.936a1.985,1.985,0,0,0-2.611.428L.44,123.59a1.986,1.986,0,0,0,.25,2.753l9.828,8.458,8.817,11.882a7.013,7.013,0,0,0,4.412,11.78,7.064,7.064,0,0,0-.082,1.073,7.019,7.019,0,0,0,7.019,7.019l.075,0c0,.048,0,.1,0,.143a7.018,7.018,0,0,0,7.019,7.019,7.16,7.16,0,0,0,1.1-.086A7.019,7.019,0,0,0,50.815,177.9l1.073-1.073.451.363a7.015,7.015,0,0,0,11.895-5.154,7.007,7.007,0,0,0,7.125-7.121,7.013,7.013,0,0,0,7.124-7.128,7.015,7.015,0,0,0,6-10.838l6.438-13.483,9.679-8.329A1.986,1.986,0,0,0,100.873,122.421ZM21.167,104.239l8.024,5.1L11.735,130.608,4.74,124.587ZM22.3,149.328l2.422-2.422c.073-.073.151-.143.23-.208a3.04,3.04,0,0,1,1.654-.672l.052,0c.087-.007.173-.012.26-.011a3.029,3.029,0,0,1,2.173.954,3.122,3.122,0,0,1-.134,4.32l-2.348,2.348a3.047,3.047,0,1,1-4.308-4.309Zm6.231,12.361a3.046,3.046,0,0,1,0-4.308l4.7-4.7a3.079,3.079,0,0,1,3.463-.6,3.036,3.036,0,0,1,1.678,3.146,3.215,3.215,0,0,1-.907,1.835l-4.622,4.621a3.047,3.047,0,0,1-4.309,0Zm7.091,7.16a3.046,3.046,0,0,1,0-4.308l4.7-4.7A3.081,3.081,0,0,1,44,159.361a3.032,3.032,0,0,1,1.454,3.079,3.219,3.219,0,0,1-.9,1.787l-4.621,4.621a3.046,3.046,0,0,1-4.309,0Zm8.077,6.244a3.05,3.05,0,0,1,0-4.308l2.422-2.422c.073-.073.15-.142.229-.207l.005,0a3.036,3.036,0,0,1,1.351-.627l.035,0c.085-.015.172-.028.258-.036.035,0,.07,0,.105-.005.071,0,.141-.008.213-.008a3.027,3.027,0,0,1,2.173.954,2.752,2.752,0,0,1,.2.231,3.144,3.144,0,0,1-.343,4.1l-2.336,2.336A3.05,3.05,0,0,1,43.7,175.092Zm37.05-22.165a3.049,3.049,0,0,1-4.308,0,1.808,1.808,0,0,0-.135-.121L63.533,139.9a1.986,1.986,0,0,0-2.824,2.794l12.909,13.043,0,0a3.047,3.047,0,1,1-4.309,4.309l-8.636-8.725a1.986,1.986,0,1,0-2.823,2.794l8.5,8.591a1.88,1.88,0,0,0,.139.155,3.047,3.047,0,1,1-4.31,4.308l-4.713-4.762a1.986,1.986,0,1,0-2.824,2.793l4.582,4.629a1.771,1.771,0,0,0,.14.156,3.047,3.047,0,1,1-4.308,4.309,4.4,4.4,0,0,0-.451-.359c-.13-.1-.164-.168-.1-.325s.164-.3.23-.465c.073-.179.131-.364.189-.549a7.161,7.161,0,0,0,.257-3.055,6.947,6.947,0,0,0-5.921-5.979,7.084,7.084,0,0,0-1.7-6.391,6.967,6.967,0,0,0-5-2.2h-.209a6.951,6.951,0,0,0-6.881-7.16,7.143,7.143,0,0,0-1.695.18,6.993,6.993,0,0,0-11.605-4.156L14.5,133.5l18.367-22.376,5.854,1.6-7.645,13.49a7.02,7.02,0,0,0,2.647,9.567q.153.087.309.165l.024.012a7.068,7.068,0,0,0,.842.353,7.018,7.018,0,0,0,8.391-3.176l4.968-8.767,8.87.629,23.621,23.62A3.051,3.051,0,0,1,80.747,152.927Zm.823-9.1L59.411,121.666a1.759,1.759,0,0,0-.131-.121,1.987,1.987,0,0,0-1.132-.456l-10.861-.77a2.019,2.019,0,0,0-1.869,1l-5.585,9.857a3.047,3.047,0,1,1-5.3-3l7.456-13.159,3.021-.869.06-.02,11.277-3.256H69.971l17.01,21.623Zm8.013-14.449-15.73-20.007,8.028-5.106,14.7,19.092Zm0,0" transform="translate(0 -79.516)" fill="#3775df"/>
    <path id="Path_23" data-name="Path 23" d="M302.13,46.41a1.981,1.981,0,0,0,1.4-.582L317.1,32.262a1.986,1.986,0,1,0-2.809-2.809L300.726,43.019a1.986,1.986,0,0,0,1.4,3.391Zm0,0" transform="translate(-240.769 -22.759)" fill="#3775df"/>
    <path id="Path_24" data-name="Path 24" d="M137.344,45.828a1.986,1.986,0,0,0,2.809-2.809L126.586,29.453a1.986,1.986,0,0,0-2.809,2.809Zm0,0" transform="translate(-98.825 -22.759)" fill="#3775df"/>
    <path id="Path_25" data-name="Path 25" d="M247.947,55.9a1.986,1.986,0,0,0,1.986-1.986V42.685a1.986,1.986,0,0,0-3.972,0V53.913A1.986,1.986,0,0,0,247.947,55.9Zm0,0" transform="translate(-197.304 -32.247)" fill="#3775df"/>
    <path id="Path_26" data-name="Path 26" d="M246.134,3.24A1.985,1.985,0,1,0,249.176.9a1.985,1.985,0,0,0-3.042,2.335Zm0,0" transform="translate(-197.325)" fill="#3775df"/>
  </g>
</svg>
