<svg xmlns="http://www.w3.org/2000/svg" width="47.752" height="27.06" viewBox="0 0 47.752 27.06">
  <g id="noun_license_plate_1931009" data-name="noun_license plate_1931009" transform="translate(-2 -15)">
    <g id="Group_146" data-name="Group 146" transform="translate(2 15)">
      <path id="Path_61" data-name="Path 61" d="M44.181,15H7.571A5.577,5.577,0,0,0,2,20.571V36.489A5.577,5.577,0,0,0,7.571,42.06h36.61a5.577,5.577,0,0,0,5.571-5.571V20.571A5.577,5.577,0,0,0,44.181,15Zm3.979,21.489a3.984,3.984,0,0,1-3.979,3.979H7.571a3.984,3.984,0,0,1-3.979-3.979V20.571a3.984,3.984,0,0,1,3.979-3.979h36.61a3.984,3.984,0,0,1,3.979,3.979Z" transform="translate(-2 -15)" fill="#00172a"/>
      <path id="Path_62" data-name="Path 62" d="M45,19H8.388A2.388,2.388,0,0,0,6,21.388V37.305a2.388,2.388,0,0,0,2.388,2.388H45a2.388,2.388,0,0,0,2.388-2.388V21.388A2.388,2.388,0,0,0,45,19ZM8.388,20.592H45a.8.8,0,0,1,.8.8v2.388H7.592V21.388A.8.8,0,0,1,8.388,20.592Zm37.406,4.775v7.959H7.592V25.367ZM45,38.1H8.388a.8.8,0,0,1-.8-.8V34.917h38.2v2.388A.8.8,0,0,1,45,38.1Z" transform="translate(-2.817 -15.817)" fill="#00172a"/>
      <path id="Path_63" data-name="Path 63" d="M19.8,23.592h1.592a.8.8,0,1,0,0-1.592H19.8a.8.8,0,1,0,0,1.592Z" transform="translate(-5.47 -16.429)" fill="#00172a"/>
      <path id="Path_64" data-name="Path 64" d="M41.8,23.592h1.592a.8.8,0,1,0,0-1.592H41.8a.8.8,0,1,0,0,1.592Z" transform="translate(-9.961 -16.429)" fill="#00172a"/>
      <path id="Path_65" data-name="Path 65" d="M21.388,40H19.8a.8.8,0,1,0,0,1.592h1.592a.8.8,0,1,0,0-1.592Z" transform="translate(-5.47 -20.103)" fill="#00172a"/>
      <path id="Path_66" data-name="Path 66" d="M43.388,40H41.8a.8.8,0,1,0,0,1.592h1.592a.8.8,0,1,0,0-1.592Z" transform="translate(-9.961 -20.103)" fill="#00172a"/>
      <rect id="Rectangle_553" data-name="Rectangle 553" width="2" height="1" transform="translate(23 13.393)" fill="#00172a"/>
      <path id="Path_67" data-name="Path 67" d="M14.183,34.367A3.183,3.183,0,1,0,11,31.183,3.183,3.183,0,0,0,14.183,34.367Zm0-4.775a1.592,1.592,0,1,1-1.592,1.592A1.592,1.592,0,0,1,14.183,29.592Z" transform="translate(-3.837 -17.654)" fill="#00172a"/>
      <path id="Path_68" data-name="Path 68" d="M23.183,34.367A3.183,3.183,0,1,0,20,31.183,3.183,3.183,0,0,0,23.183,34.367Zm0-4.775a1.592,1.592,0,1,1-1.592,1.592A1.592,1.592,0,0,1,23.183,29.592Z" transform="translate(-5.674 -17.654)" fill="#00172a"/>
      <path id="Path_69" data-name="Path 69" d="M39.183,34.367A3.183,3.183,0,1,0,36,31.183,3.183,3.183,0,0,0,39.183,34.367Zm0-4.775a1.592,1.592,0,1,1-1.592,1.592A1.592,1.592,0,0,1,39.183,29.592Z" transform="translate(-8.94 -17.654)" fill="#00172a"/>
      <path id="Path_70" data-name="Path 70" d="M48.183,34.367A3.183,3.183,0,1,0,45,31.183,3.183,3.183,0,0,0,48.183,34.367Zm0-4.775a1.592,1.592,0,1,1-1.592,1.592A1.592,1.592,0,0,1,48.183,29.592Z" transform="translate(-10.777 -17.654)" fill="#00172a"/>
    </g>
  </g>
</svg>
