<svg xmlns="http://www.w3.org/2000/svg" width="42" height="36.831" viewBox="0 0 42 36.831">
  <g id="weight" transform="translate(0 -31.509)">
    <path id="Path_103" data-name="Path 103" d="M39.613,49.491l-7.186-9.377a1.23,1.23,0,0,0-.976-.482H24.857v-4.1H37.129a6.3,6.3,0,0,0,4.53-1.942,1.23,1.23,0,0,0-1.778-1.7,3.828,3.828,0,0,1-2.752,1.182H4.844a3.832,3.832,0,0,1-2.723-1.153,1.23,1.23,0,1,0-1.76,1.72,6.307,6.307,0,0,0,4.483,1.894h12.3v4.1H10.5a1.23,1.23,0,0,0-.979.485L2.388,49.5C-3.5,57.266,2.2,68.339,11.906,68.34H30.048c9.7,0,15.471-11.059,9.565-18.848ZM19.608,35.532H22.4v4.1H19.608Zm10.44,30.347H11.906c-7.625,0-12.256-8.7-7.559-14.894l6.767-8.891h19.73l6.813,8.89C42.348,57.171,37.686,65.879,30.048,65.879Z" transform="translate(0)" fill="#00172a"/>
    <path id="Path_104" data-name="Path 104" d="M154.168,194.557a9.1,9.1,0,1,0,9.1,9.1A9.115,9.115,0,0,0,154.168,194.557Zm0,15.748a6.643,6.643,0,0,1-1.23-13.171v6.528a1.23,1.23,0,1,0,2.461,0v-6.528a6.643,6.643,0,0,1-1.23,13.171Z" transform="translate(-133.166 -149.675)" fill="#00172a"/>
  </g>
</svg>
