<svg xmlns="http://www.w3.org/2000/svg" width="40" height="40" viewBox="0 0 40 40"><defs><style>.a{fill:#3775df;}.b{fill:#fff;}</style></defs><g transform="translate(-439 -2439)"><circle class="a" cx="20" cy="20" r="20" transform="translate(439 2439)"/><path class="b" d="M20.735,8.059c.015.205.015.411.015.616A13.384,13.384,0,0,1,7.273,22.151,13.385,13.385,0,0,1,0,20.025a9.8,9.8,0,0,0,1.144.059,9.486,9.486,0,0,0,5.88-2.024A4.745,4.745,0,0,1,2.6,14.775a5.973,5.973,0,0,0,.895.073,5.009,5.009,0,0,0,1.246-.161,4.737,4.737,0,0,1-3.8-4.649V9.98a4.77,4.77,0,0,0,2.141.6A4.744,4.744,0,0,1,1.613,4.246,13.463,13.463,0,0,0,11.379,9.2a5.347,5.347,0,0,1-.117-1.085,4.741,4.741,0,0,1,8.2-3.241,9.325,9.325,0,0,0,3.006-1.144,4.724,4.724,0,0,1-2.082,2.61,9.5,9.5,0,0,0,2.728-.733,10.182,10.182,0,0,1-2.376,2.449Z" transform="translate(448.365 2446.728)"/></g></svg>