<svg xmlns="http://www.w3.org/2000/svg" width="40" height="39.758" viewBox="0 0 40 39.758"><defs><style>.a{fill:#fff;}.b{fill:#3775df;}</style></defs><g transform="translate(-337 -2507.242)"><path class="a" d="M22.829,67.087v-.36a2.463,2.463,0,0,0-2.46-2.46H2.46A2.463,2.463,0,0,0,0,66.727V78.905a2.462,2.462,0,0,0,2.46,2.46h17.91a2.462,2.462,0,0,0,2.46-2.46V67.087ZM2.46,65.6h17.91a1.123,1.123,0,0,1,1.122,1.122h0L12.534,72.7a2.25,2.25,0,0,1-2.238,0L1.338,66.727h0A1.123,1.123,0,0,1,2.46,65.6Zm17.91,14.423H2.46a1.123,1.123,0,0,1-1.122-1.122V68.335l8.216,5.477a3.58,3.58,0,0,0,3.722,0l8.216-5.477V78.905A1.123,1.123,0,0,1,20.369,80.027Z" transform="translate(345.585 2453.733)"/><path class="b" d="M40.563,20.563A20,20,0,1,0,17.438,40.321V26.344H12.357V20.563h5.081V16.156c0-5.012,2.984-7.781,7.554-7.781a30.78,30.78,0,0,1,4.477.39v4.919H26.946c-2.484,0-3.259,1.542-3.259,3.123v3.754h5.547l-.887,5.781h-4.66V40.321A20.007,20.007,0,0,0,40.563,20.563Z" transform="translate(336.438 2506.679)"/></g></svg>