<svg xmlns="http://www.w3.org/2000/svg" width="40" height="40" viewBox="0 0 40 40"><defs><style>.a{fill:#3775df;}.b{fill:#fff;}</style></defs><g transform="translate(-286 -2507)"><circle class="a" cx="20" cy="20" r="20" transform="translate(286 2507)"/><path class="b" d="M22.829,67.087v-.36a2.463,2.463,0,0,0-2.46-2.46H2.46A2.463,2.463,0,0,0,0,66.727V78.905a2.462,2.462,0,0,0,2.46,2.46h17.91a2.462,2.462,0,0,0,2.46-2.46V67.087ZM2.46,65.6h17.91a1.123,1.123,0,0,1,1.122,1.122h0L12.534,72.7a2.25,2.25,0,0,1-2.238,0L1.338,66.727h0A1.123,1.123,0,0,1,2.46,65.6Zm17.91,14.423H2.46a1.123,1.123,0,0,1-1.122-1.122V68.335l8.216,5.477a3.58,3.58,0,0,0,3.722,0l8.216-5.477V78.905A1.123,1.123,0,0,1,20.369,80.027Z" transform="translate(294.585 2453.733)"/></g></svg>